<svg xmlns="http://www.w3.org/2000/svg" xmlns:xlink="http://www.w3.org/1999/xlink" viewBox="0 0 47.07 26.19"><defs><style>.cls-1{fill:none;}.cls-2{isolation:isolate;}.cls-3{fill:#4d2e99;}.cls-4{clip-path:url(#clip-path);}.cls-5{opacity:0.3;mix-blend-mode:hard-light;}.cls-6{fill:#6a3ecc;}.cls-7{fill:#7949e2;}</style><clipPath id="clip-path"><rect class="cls-1" x="-114.52" y="-2.92" width="650" height="500"/></clipPath></defs><title>test</title><g class="cls-2"><g id="BACKGROUND"><rect class="cls-3" x="-114.52" y="-2.92" width="650" height="500"/><g class="cls-4"><g class="cls-5"><rect x="-21.88" y="15.06" width="43.58" height="10.41"/><path d="M21.71,15.06H-21.88v.4a15.51,15.51,0,0,1,1.91.43,29.5,29.5,0,0,0,9.49,1.4c3.52-.12,7-.59,10.55-.7,4.67-.14,9.33.14,14,.1a29.47,29.47,0,0,0,7.64-.9Z"/><rect x="25.24" y="15.06" width="43.58" height="10.41"/><path d="M68.82,15.06H25.24v.4a15.36,15.36,0,0,1,1.9.43,29.57,29.57,0,0,0,9.5,1.4c3.52-.12,7-.59,10.55-.7,4.66-.14,9.33.14,14,.1a29.42,29.42,0,0,0,7.64-.9Z"/><rect x="1.68" y="2.01" width="43.58" height="10.41"/><path d="M45.27,2H1.68v.41a15.51,15.51,0,0,1,1.91.43,29.5,29.5,0,0,0,9.49,1.4c3.52-.12,7-.6,10.55-.7,4.67-.14,9.33.13,14,.1a29,29,0,0,0,7.64-.91Z"/></g><rect class="cls-6" x="-21.88" y="14.06" width="43.58" height="10.41"/><path class="cls-7" d="M21.71,14.06H-21.88v.4a15.51,15.51,0,0,1,1.91.43,29.5,29.5,0,0,0,9.49,1.4c3.52-.12,7-.59,10.55-.7,4.67-.14,9.33.14,14,.1a29.47,29.47,0,0,0,7.64-.9Z"/><rect class="cls-6" x="25.24" y="14.06" width="43.58" height="10.41"/><path class="cls-7" d="M68.82,14.06H25.24v.4a15.36,15.36,0,0,1,1.9.43,29.57,29.57,0,0,0,9.5,1.4c3.52-.12,7-.59,10.55-.7,4.66-.14,9.33.14,14,.1a29.42,29.42,0,0,0,7.64-.9Z"/><rect class="cls-6" x="1.68" y="1.01" width="43.58" height="10.41"/><path class="cls-7" d="M45.27,1H1.68v.41a15.51,15.51,0,0,1,1.91.43,29.5,29.5,0,0,0,9.49,1.4c3.52-.12,7-.6,10.55-.7,4.67-.14,9.33.13,14,.1a29,29,0,0,0,7.64-.91Z"/></g></g></g></svg>